<svg width="321" height="55" viewBox="0 0 321 55" fill="none" xmlns="http://www.w3.org/2000/svg">
<path d="M317.268 31.0647C316.784 29.9343 316.117 28.9426 315.266 28.1108C314.416 27.2683 313.426 26.6072 312.285 26.1166C311.145 25.6367 309.929 25.3915 308.637 25.3915H302.374C301.932 25.3915 301.534 25.3168 301.158 25.1569C300.781 24.9969 300.447 24.7836 300.167 24.4957C299.888 24.2184 299.662 23.8772 299.5 23.504C299.339 23.1201 299.263 22.7148 299.263 22.2776C299.263 21.8404 299.339 21.4458 299.5 21.0726C299.662 20.6993 299.877 20.3688 300.167 20.0915C300.447 19.8142 300.781 19.5903 301.158 19.4303C301.534 19.2704 301.943 19.1957 302.374 19.1957H308.551L302.298 13C301.039 13 299.845 13.2559 298.736 13.7358C297.606 14.2264 296.616 14.8875 295.766 15.7406C294.916 16.5831 294.248 17.5642 293.743 18.6945C293.248 19.8142 293 21.0193 293 22.2989C293 23.5786 293.248 24.7943 293.743 25.9247C294.238 27.055 294.905 28.0361 295.766 28.8786C296.616 29.721 297.606 30.3822 298.736 30.8834C299.877 31.3739 301.082 31.6192 302.374 31.6192H308.637C309.068 31.6192 309.477 31.7045 309.853 31.8645C310.23 32.0244 310.553 32.2377 310.843 32.5256C311.123 32.8029 311.349 33.1335 311.511 33.5067C311.672 33.8799 311.747 34.2852 311.747 34.7117C311.747 35.1383 311.672 35.5435 311.511 35.9168C311.349 36.29 311.134 36.6206 310.843 36.8978C310.553 37.1751 310.23 37.399 309.853 37.559C309.477 37.719 309.068 37.7936 308.637 37.7936H294.743V44H308.637C309.929 44 311.145 43.7547 312.285 43.2642C313.426 42.7736 314.416 42.1125 315.266 41.27C316.117 40.4276 316.784 39.4465 317.268 38.3161C317.752 37.1858 318 35.9914 318 34.7117C318 33.4321 317.752 32.227 317.268 31.0967V31.0647ZM307.905 13L314.158 19.1957H316.709V13H307.895H307.905Z" fill="#313030"/>
<path d="M27.5 44H20.9043L9.02344 23.7188V44H2.85742V13.1914H9.45312L21.334 33.4941V13.1914H27.5V44ZM39.4023 44H33.2363V13.1914H39.4023V44ZM51.3047 19.3574V31.6895H57.4707C58.3158 31.6895 59.1107 31.5319 59.8555 31.2168C60.6003 30.8874 61.252 30.4434 61.8105 29.8848C62.3691 29.3262 62.806 28.6745 63.1211 27.9297C63.4505 27.1706 63.6152 26.3685 63.6152 25.5234C63.6152 24.6784 63.4505 23.8835 63.1211 23.1387C62.806 22.3796 62.3691 21.7207 61.8105 21.1621C61.252 20.6035 60.6003 20.1667 59.8555 19.8516C59.1107 19.5221 58.3158 19.3574 57.4707 19.3574H51.3047ZM51.3047 44H45.1387V13.1914H57.4707C58.6022 13.1914 59.6908 13.3418 60.7363 13.6426C61.7819 13.929 62.7559 14.3444 63.6582 14.8887C64.5749 15.4186 65.4056 16.0632 66.1504 16.8223C66.9095 17.5671 67.554 18.3978 68.084 19.3145C68.6283 20.2311 69.0436 21.2122 69.3301 22.2578C69.6309 23.3034 69.7812 24.3919 69.7812 25.5234C69.7812 26.5833 69.6452 27.6146 69.373 28.6172C69.1152 29.6198 68.7357 30.5723 68.2344 31.4746C67.7474 32.377 67.1458 33.2077 66.4297 33.9668C65.7135 34.7259 64.9115 35.3848 64.0234 35.9434L67.4395 44H60.8867L58.2012 37.791L51.3047 37.834V44ZM104.414 44H98.2695V22C98.2695 21.5703 98.1836 21.1693 98.0117 20.7969C97.8542 20.4245 97.6322 20.1022 97.3457 19.8301C97.0736 19.5436 96.7513 19.3216 96.3789 19.1641C96.0065 19.0065 95.6055 18.9277 95.1758 18.9277C94.7461 18.9277 94.3451 19.0065 93.9727 19.1641C93.6003 19.3216 93.2708 19.5436 92.9844 19.8301C92.7122 20.1022 92.4974 20.4245 92.3398 20.7969C92.1823 21.1693 92.1035 21.5703 92.1035 22V44H85.9375V22C85.9375 21.5703 85.8587 21.1693 85.7012 20.7969C85.5436 20.4245 85.3216 20.1022 85.0352 19.8301C84.763 19.5436 84.4408 19.3216 84.0684 19.1641C83.696 19.0065 83.2949 18.9277 82.8652 18.9277C82.4355 18.9277 82.0345 19.0065 81.6621 19.1641C81.2897 19.3216 80.9603 19.5436 80.6738 19.8301C80.4017 20.1022 80.1868 20.4245 80.0293 20.7969C79.8717 21.1693 79.793 21.5703 79.793 22V44H73.627V22C73.627 20.7253 73.8633 19.5293 74.3359 18.4121C74.8229 17.2806 75.4818 16.2995 76.3125 15.4688C77.1576 14.6237 78.1387 13.9648 79.2559 13.4922C80.3874 13.0052 81.5905 12.7617 82.8652 12.7617C84.0111 12.7617 85.1139 12.9694 86.1738 13.3848C87.2337 13.7858 88.1862 14.373 89.0312 15.1465C89.8763 14.373 90.8216 13.7858 91.8672 13.3848C92.9271 12.9694 94.0299 12.7617 95.1758 12.7617C96.4505 12.7617 97.6465 13.0052 98.7637 13.4922C99.8952 13.9648 100.876 14.6237 101.707 15.4688C102.552 16.2995 103.211 17.2806 103.684 18.4121C104.171 19.5293 104.414 20.7253 104.414 22V44ZM128.068 31.6895V25.5234C128.068 24.6784 127.904 23.8835 127.574 23.1387C127.259 22.3796 126.822 21.7207 126.264 21.1621C125.705 20.6035 125.046 20.1667 124.287 19.8516C123.542 19.5221 122.747 19.3574 121.902 19.3574C121.057 19.3574 120.255 19.5221 119.496 19.8516C118.751 20.1667 118.1 20.6035 117.541 21.1621C116.982 21.7207 116.538 22.3796 116.209 23.1387C115.894 23.8835 115.736 24.6784 115.736 25.5234V31.6895H128.068ZM134.234 44H128.068V37.834H115.736V44H109.592V25.5234C109.592 23.819 109.914 22.222 110.559 20.7324C111.203 19.2285 112.077 17.918 113.18 16.8008C114.297 15.6836 115.6 14.8027 117.09 14.1582C118.594 13.5137 120.198 13.1914 121.902 13.1914C123.607 13.1914 125.204 13.5137 126.693 14.1582C128.197 14.8027 129.508 15.6836 130.625 16.8008C131.742 17.918 132.623 19.2285 133.268 20.7324C133.912 22.222 134.234 23.819 134.234 25.5234V44ZM161.154 44H139.584V13.1914H145.75V37.834H161.154V44ZM182.51 31.6895V25.5234C182.51 24.6784 182.345 23.8835 182.016 23.1387C181.701 22.3796 181.264 21.7207 180.705 21.1621C180.146 20.6035 179.488 20.1667 178.729 19.8516C177.984 19.5221 177.189 19.3574 176.344 19.3574C175.499 19.3574 174.697 19.5221 173.938 19.8516C173.193 20.1667 172.541 20.6035 171.982 21.1621C171.424 21.7207 170.98 22.3796 170.65 23.1387C170.335 23.8835 170.178 24.6784 170.178 25.5234V31.6895H182.51ZM188.676 44H182.51V37.834H170.178V44H164.033V25.5234C164.033 23.819 164.355 22.222 165 20.7324C165.645 19.2285 166.518 17.918 167.621 16.8008C168.738 15.6836 170.042 14.8027 171.531 14.1582C173.035 13.5137 174.639 13.1914 176.344 13.1914C178.048 13.1914 179.645 13.5137 181.135 14.1582C182.639 14.8027 183.949 15.6836 185.066 16.8008C186.184 17.918 187.064 19.2285 187.709 20.7324C188.354 22.222 188.676 23.819 188.676 25.5234V44ZM231 34.7617C231 36.0365 230.757 37.2324 230.27 38.3496C229.783 39.4668 229.117 40.4479 228.271 41.293C227.441 42.1237 226.467 42.7826 225.35 43.2695C224.232 43.7565 223.036 44 221.762 44H206.357V13.1914H221.762C223.036 13.1914 224.232 13.4349 225.35 13.9219C226.467 14.4089 227.441 15.0749 228.271 15.9199C229.117 16.7507 229.783 17.7246 230.27 18.8418C230.757 19.959 231 21.1549 231 22.4297C231 23.0026 230.921 23.5898 230.764 24.1914C230.606 24.793 230.384 25.373 230.098 25.9316C229.811 26.4902 229.467 26.9987 229.066 27.457C228.665 27.9154 228.221 28.2949 227.734 28.5957C228.236 28.8678 228.687 29.2402 229.088 29.7129C229.489 30.1712 229.833 30.6797 230.119 31.2383C230.406 31.7969 230.62 32.3841 230.764 33C230.921 33.6016 231 34.1888 231 34.7617ZM212.523 37.834H221.762C222.191 37.834 222.592 37.7552 222.965 37.5977C223.337 37.4401 223.66 37.2253 223.932 36.9531C224.218 36.6667 224.44 36.3372 224.598 35.9648C224.755 35.5924 224.834 35.1914 224.834 34.7617C224.834 34.332 224.755 33.931 224.598 33.5586C224.44 33.1862 224.218 32.8639 223.932 32.5918C223.66 32.3053 223.337 32.0833 222.965 31.9258C222.592 31.7682 222.191 31.6895 221.762 31.6895H212.523V37.834ZM212.523 25.5234H221.762C222.191 25.5234 222.592 25.4447 222.965 25.2871C223.337 25.1296 223.66 24.9147 223.932 24.6426C224.218 24.3561 224.44 24.0267 224.598 23.6543C224.755 23.2676 224.834 22.8594 224.834 22.4297C224.834 22 224.755 21.599 224.598 21.2266C224.44 20.8542 224.218 20.5319 223.932 20.2598C223.66 19.9733 223.337 19.7513 222.965 19.5938C222.592 19.4362 222.191 19.3574 221.762 19.3574H212.523V25.5234ZM253.795 31.6895V25.5234C253.795 24.6784 253.63 23.8835 253.301 23.1387C252.986 22.3796 252.549 21.7207 251.99 21.1621C251.432 20.6035 250.773 20.1667 250.014 19.8516C249.269 19.5221 248.474 19.3574 247.629 19.3574C246.784 19.3574 245.982 19.5221 245.223 19.8516C244.478 20.1667 243.826 20.6035 243.268 21.1621C242.709 21.7207 242.265 22.3796 241.936 23.1387C241.62 23.8835 241.463 24.6784 241.463 25.5234V31.6895H253.795ZM259.961 44H253.795V37.834H241.463V44H235.318V25.5234C235.318 23.819 235.641 22.222 236.285 20.7324C236.93 19.2285 237.803 17.918 238.906 16.8008C240.023 15.6836 241.327 14.8027 242.816 14.1582C244.32 13.5137 245.924 13.1914 247.629 13.1914C249.333 13.1914 250.93 13.5137 252.42 14.1582C253.924 14.8027 255.234 15.6836 256.352 16.8008C257.469 17.918 258.35 19.2285 258.994 20.7324C259.639 22.222 259.961 23.819 259.961 25.5234V44ZM289.824 40.8848C288.392 42.1022 286.795 43.0404 285.033 43.6992C283.271 44.3438 281.438 44.666 279.533 44.666C278.072 44.666 276.661 44.4727 275.301 44.0859C273.954 43.7135 272.694 43.1836 271.52 42.4961C270.345 41.7943 269.271 40.9635 268.297 40.0039C267.323 39.0299 266.492 37.9557 265.805 36.7812C265.117 35.5924 264.58 34.3177 264.193 32.957C263.821 31.5964 263.635 30.1855 263.635 28.7246C263.635 27.2637 263.821 25.86 264.193 24.5137C264.58 23.1673 265.117 21.9069 265.805 20.7324C266.492 19.5436 267.323 18.4694 268.297 17.5098C269.271 16.5358 270.345 15.7051 271.52 15.0176C272.694 14.3301 273.954 13.8001 275.301 13.4277C276.661 13.041 278.072 12.8477 279.533 12.8477C281.438 12.8477 283.271 13.1771 285.033 13.8359C286.795 14.4805 288.392 15.4115 289.824 16.6289L286.602 22C285.671 21.0547 284.596 20.3171 283.379 19.7871C282.161 19.2428 280.88 18.9707 279.533 18.9707C278.187 18.9707 276.919 19.2285 275.73 19.7441C274.556 20.2598 273.525 20.9616 272.637 21.8496C271.749 22.7233 271.047 23.7546 270.531 24.9434C270.016 26.1178 269.758 27.3783 269.758 28.7246C269.758 30.0853 270.016 31.36 270.531 32.5488C271.047 33.7376 271.749 34.776 272.637 35.6641C273.525 36.5521 274.556 37.2539 275.73 37.7695C276.919 38.2852 278.187 38.543 279.533 38.543C280.307 38.543 281.059 38.4499 281.789 38.2637C282.52 38.0775 283.214 37.8197 283.873 37.4902V28.7246H289.824V40.8848Z" fill="#313030"/>
</svg>
